<svg width="28" height="27" viewBox="0 0 28 27" fill="none" xmlns="http://www.w3.org/2000/svg">
<path d="M12.0868 1.39005C12.689 -0.463359 15.311 -0.463353 15.9132 1.39005L17.8391 7.31716C18.1084 8.14603 18.8808 8.70722 19.7523 8.70722H25.9845C27.9333 8.70722 28.7435 11.201 27.1669 12.3464L22.125 16.0096C21.4199 16.5219 21.1249 17.4299 21.3942 18.2587L23.3201 24.1859C23.9223 26.0393 21.801 27.5805 20.2244 26.435L15.1825 22.7719C14.4774 22.2596 13.5226 22.2596 12.8175 22.7719L7.77564 26.435C6.19904 27.5805 4.07774 26.0393 4.67995 24.1858L6.60578 18.2587C6.8751 17.4299 6.58006 16.5219 5.87499 16.0096L0.833085 12.3464C-0.743519 11.201 0.0667533 8.70722 2.01554 8.70722H8.24767C9.1192 8.70722 9.8916 8.14603 10.1609 7.31716L12.0868 1.39005Z" fill="#3FBA57"/>
</svg>
