<svg width="24" height="24" viewBox="0 0 24 24" fill="none" xmlns="http://www.w3.org/2000/svg">
<path d="M3 7.53491L3.94498 16.9398C6.38997 16.8048 8.83481 17.2098 11.2952 18.1998V8.95982C8.28014 7.83484 5.53515 7.41484 3.00007 7.53484L3 7.53491Z" fill="#F2F2F2"/>
<path d="M5.05516 6.72501C7.08014 6.86001 9.16533 7.31 11.2952 8.07501V7.62501C9.25516 6.14003 6.94499 5.12003 4.96533 5.00003L5.05516 6.72501Z" fill="#F2F2F2"/>
<path d="M16.4099 14.3002C16.7249 14.1052 17.0849 14.0152 17.3999 13.9552L17.6099 13.9102C17.6699 13.8952 17.7299 13.8802 17.8049 13.8802C17.6849 13.4002 17.4299 12.9352 17.0849 12.5302C16.7549 12.1402 16.3049 11.8702 15.8249 11.6002C15.5849 11.4502 15.3299 11.3152 15.0899 11.1352C14.2049 10.5202 13.6499 9.57521 13.5149 8.45023C13.0049 8.60023 12.4949 8.78023 11.9849 8.97521V18.2303C13.0799 17.7803 14.1749 17.4503 15.2698 17.2403C15.2698 17.2103 15.2848 17.1653 15.2848 17.1353L15.3298 16.7303C15.3898 16.1903 15.4498 15.5903 15.7348 15.0503C15.8998 14.7353 16.1248 14.4803 16.4098 14.3003L16.4099 14.3002Z" fill="#F2F2F2"/>
<path d="M15.5699 10.4451C15.7799 10.5951 16.0049 10.7301 16.2449 10.8651C16.7549 11.1651 17.2949 11.4801 17.7149 11.9751C18.1949 12.5451 18.5249 13.1751 18.6599 13.8501C18.7799 13.8651 18.8849 13.8801 19.0049 13.8951L19.0799 13.9101C19.2299 13.9401 19.4249 13.9701 19.6349 14.0451L20.2949 7.52019C18.4349 7.43019 16.4549 7.64019 14.3251 8.19521C14.4151 9.15521 14.8501 9.95023 15.5701 10.4452L15.5699 10.4451Z" fill="#F2F2F2"/>
<path d="M18.3148 5C16.3498 5.12 14.0397 6.14 11.985 7.64V8.09C14.115 7.32502 16.2001 6.86 18.225 6.74L18.3148 5Z" fill="#F2F2F2"/>
<path d="M20.805 17.1949C20.715 16.5649 20.715 15.8599 20.415 15.2749C20.13 14.7199 19.545 14.5549 18.96 14.4499C18.945 14.4499 18.93 14.4499 18.9 14.4349C18.63 14.3899 18.345 14.3449 18.075 14.3749C17.955 14.3899 17.85 14.4049 17.73 14.4349C17.655 14.4499 17.58 14.4649 17.52 14.4799C17.235 14.5399 16.95 14.6149 16.695 14.7649C16.485 14.8849 16.335 15.0649 16.23 15.2749C15.93 15.8599 15.93 16.55 15.84 17.1949C15.735 17.9449 15.675 18.6799 15.675 19.43C15.675 20.9149 16.86 21.9949 18.3301 22.085C19.8001 21.995 20.9851 20.915 20.9851 19.43C20.9701 18.6949 20.9101 17.945 20.8051 17.1949L20.805 17.1949ZM18.9 17.4049C18.885 17.6899 18.66 17.8699 18.285 17.8849C17.97 17.8999 17.73 17.7499 17.73 17.4799C17.73 17.1949 17.715 16.9099 17.73 16.6399C17.73 16.3699 17.745 16.0849 17.76 15.815C17.775 15.53 18.075 15.35 18.39 15.3799C18.705 15.4099 18.87 15.5599 18.9 15.875V15.92V16.64C18.915 16.895 18.915 17.15 18.9 17.4049L18.9 17.4049Z" fill="#F2F2F2"/>
</svg>
