<svg width="24" height="24" viewBox="0 0 24 24" fill="none" xmlns="http://www.w3.org/2000/svg">
<path d="M12.5035 9C12.5035 7.89543 13.399 7 14.5035 7H16.83C17.9346 7 18.83 7.89543 18.83 9V9.46287C18.83 10.5674 17.9346 11.4629 16.83 11.4629H14.5035C13.399 11.4629 12.5035 10.5674 12.5035 9.46287V9Z" fill="#3FBA57"/>
<path d="M5 13.3863C5 14.4908 5.89543 15.3863 7 15.3863H9.32649C10.4311 15.3863 11.3265 14.4908 11.3265 13.3863V9C11.3265 7.89543 10.4311 7 9.32649 7H7C5.89543 7 5 7.89543 5 9V13.3863Z" fill="#3FBA57"/>
<path d="M12.5035 14.6399C12.5035 13.5353 13.399 12.6399 14.5035 12.6399H16.83C17.9346 12.6399 18.83 13.5353 18.83 14.6399V19.0262C18.83 20.1307 17.9346 21.0262 16.83 21.0262H14.5035C13.399 21.0262 12.5035 20.1307 12.5035 19.0262V14.6399Z" fill="#3FBA57"/>
<path d="M5 18.5633C5 17.4587 5.89543 16.5633 7 16.5633H9.32649C10.4311 16.5633 11.3265 17.4587 11.3265 18.5633V19.0262C11.3265 20.1307 10.4311 21.0262 9.32649 21.0262H7C5.89543 21.0262 5 20.1307 5 19.0262V18.5633Z" fill="#3FBA57"/>
</svg>
