<svg width="24" height="24" viewBox="0 0 24 24" fill="none" xmlns="http://www.w3.org/2000/svg">
<path d="M15.968 18.5984C15.6639 17.2313 15.2592 15.7216 15.2592 15.7216C15.2592 15.148 14.508 14.4928 13.0216 14.1121C12.2513 13.9154 11.604 13.4728 11.604 13.4728C11.508 13.4193 11.5232 12.9184 11.5232 12.9184L11.0456 12.8455C11.0456 12.8031 11.0032 12.2063 11.0032 12.2063C11.5768 12.0134 11.5152 10.8887 11.5152 10.8887C11.8776 11.0886 12.116 10.1991 12.116 10.1991C12.5432 8.96304 11.9 9.03589 11.9 9.03589C12.1039 8.11193 11.9 6.75589 11.9 6.75589C11.8496 6.32866 11.6839 5.99345 11.4455 5.7351C10.2832 4.48247 7.39435 5.06801 7.81435 5.74568C6.55514 5.51452 6.84389 8.3609 6.84389 8.3609L7.11751 9.09684C6.58234 9.44319 6.95586 9.85928 6.97113 10.3409C6.98238 10.653 7.07519 10.7993 7.17108 10.865C7.2943 10.9457 7.43264 10.9034 7.43264 10.9034C7.43666 10.9882 7.44068 11.0689 7.44778 11.1458C7.50537 11.7162 7.70613 11.989 7.85975 12.1203C7.96382 12.2091 8.04056 12.2282 8.04056 12.2282C8.04457 12.2594 8.04859 12.2898 8.05181 12.317C8.14462 12.9522 8.07899 12.8371 8.07899 12.8371L7.56296 12.8987C7.58613 13.0835 7.5205 13.3994 7.5205 13.3994C6.91354 13.6679 6.78243 13.8264 6.1776 14.0879C5.0064 14.5959 3.73995 15.2591 3.51202 16.1519C3.40408 16.5831 3.18885 17.6312 3 18.5936H3.10795L15.968 18.5984Z" fill="#F2F2F2"/>
<path d="M13.7342 9.36253C13.7342 9.42414 13.6614 10.125 13.5375 10.5601C13.4143 10.9914 12.9943 11.7386 12.9943 11.7386C13.2063 11.6425 13.6182 11.1378 13.6182 11.1378C13.6182 11.1378 13.4678 11.6002 13.4447 11.6618C13.4215 11.7234 13.2791 11.9163 13.3095 11.9163C13.3407 11.9163 13.6559 12.0627 13.6559 12.0627L14.8847 12.4442L14.8655 13.0219C14.7576 13.037 14.3344 13.3187 14.2728 13.457C14.2303 13.5498 14.1415 13.7115 14.0567 13.8226C15.1736 14.273 15.8319 14.9354 15.8591 15.6754C15.8743 15.7946 16.4487 17.8402 16.5719 18.5987H21.7638C21.7326 17.9403 21.6134 15.6138 21.6134 15.5947C21.6134 15.5947 21.3166 14.8394 20.847 14.7627C20.3775 14.6859 19.7727 14.5203 19.5182 14.3314C19.3718 14.2195 18.8902 14.0234 18.6669 13.9426C18.5629 13.9042 18.3861 13.5963 18.3245 13.457C18.2629 13.3179 17.8389 13.037 17.7317 13.0219L17.7126 12.4442L18.9414 12.0627C18.9414 12.0627 19.2573 11.9163 19.2877 11.9163C19.3181 11.9163 19.1413 11.6811 19.1182 11.6195C19.095 11.5579 18.9798 11.1339 18.9798 11.1339C18.9798 11.1339 19.3958 11.6419 19.6038 11.7347C19.6038 11.7347 19.1918 10.9603 19.0686 10.5291C18.9454 10.0978 18.8646 9.41947 18.8646 9.36187C18.8646 9.30026 18.6102 7.48593 18.4718 7.18593C18.3678 6.96267 18.2407 6.68114 18.0478 6.46994C17.9821 6.39695 17.9053 6.3273 17.8205 6.27775C17.4974 6.0778 17.0198 5.79213 16.3342 5.75369H16.303H16.2718C15.5862 5.79213 15.1086 6.07686 14.7854 6.27775C14.4623 6.4777 14.2734 6.8866 14.1343 7.1866C14.0727 7.32173 13.9879 7.74895 13.915 8.19213C13.8108 8.7466 13.7341 9.32812 13.7341 9.36254L13.7342 9.36253Z" fill="#F2F2F2"/>
</svg>
