<svg width="23" height="22" viewBox="0 0 23 22" fill="none" xmlns="http://www.w3.org/2000/svg">
<path d="M16.6191 1.11416C18.2931 0.0681337 20.3276 1.77532 19.5882 3.60552L18.0553 7.39944C17.7246 8.21793 17.9586 9.15627 18.6348 9.72371L21.7694 12.3539C23.2815 13.6227 22.2866 16.0852 20.3175 15.9476L16.2356 15.6621C15.3549 15.6005 14.5348 16.113 14.2041 16.9315L12.6713 20.7254C11.9318 22.5556 9.28239 22.3703 8.80486 20.455L7.81494 16.4847C7.60138 15.6282 6.86057 15.0066 5.97995 14.945L1.89804 14.6595C-0.0710847 14.5218 -0.713604 11.9448 0.960389 10.8988L4.43049 8.73044C5.17912 8.26264 5.54139 7.36599 5.32783 6.50945L4.33791 2.53912C3.86038 0.62382 6.11272 -0.783597 7.62484 0.485224L10.7594 3.11543C11.4356 3.68286 12.4003 3.75032 13.149 3.28252L16.6191 1.11416Z" fill="#3FBA57"/>
</svg>
