<svg width="501" height="788" viewBox="0 0 501 788" fill="none" xmlns="http://www.w3.org/2000/svg">
<rect width="501" height="788" fill="#258A39"/>
<ellipse cx="408.5" cy="733.5" rx="23.5" ry="22.5" fill="#258A39"/>
<path d="M431.5 733.5C431.5 745.63 421.223 755.5 408.5 755.5C395.777 755.5 385.5 745.63 385.5 733.5C385.5 721.37 395.777 711.5 408.5 711.5C421.223 711.5 431.5 721.37 431.5 733.5Z" stroke="white" stroke-opacity="0.5"/>
<circle cx="295" cy="372" r="33" fill="#258A39"/>
<circle cx="295" cy="372" r="32.5" stroke="white" stroke-opacity="0.5"/>
<ellipse cx="228.5" cy="770" rx="13.5" ry="13" fill="#258A39"/>
<path d="M241.5 770C241.5 776.886 235.698 782.5 228.5 782.5C221.302 782.5 215.5 776.886 215.5 770C215.5 763.114 221.302 757.5 228.5 757.5C235.698 757.5 241.5 763.114 241.5 770Z" stroke="white" stroke-opacity="0.5"/>
<circle cx="441.5" cy="57.5" r="13.5" fill="#258A39"/>
<circle cx="441.5" cy="57.5" r="13" stroke="white" stroke-opacity="0.5"/>
<ellipse cx="122.5" cy="80.5" rx="20.5" ry="19.5" fill="#258A39"/>
<path d="M142.5 80.5C142.5 90.9701 133.57 99.5 122.5 99.5C111.43 99.5 102.5 90.9701 102.5 80.5C102.5 70.0299 111.43 61.5 122.5 61.5C133.57 61.5 142.5 70.0299 142.5 80.5Z" stroke="white" stroke-opacity="0.5"/>
<ellipse cx="51" cy="722.5" rx="7" ry="6.5" fill="#258A39"/>
<path d="M57.5 722.5C57.5 725.779 54.6254 728.5 51 728.5C47.3746 728.5 44.5 725.779 44.5 722.5C44.5 719.221 47.3746 716.5 51 716.5C54.6254 716.5 57.5 719.221 57.5 722.5Z" stroke="white" stroke-opacity="0.5"/>
<ellipse cx="409" cy="463.5" rx="7" ry="6.5" fill="#258A39"/>
<path d="M415.5 463.5C415.5 466.779 412.625 469.5 409 469.5C405.375 469.5 402.5 466.779 402.5 463.5C402.5 460.221 405.375 457.5 409 457.5C412.625 457.5 415.5 460.221 415.5 463.5Z" stroke="white" stroke-opacity="0.5"/>
</svg>
