<svg width="24" height="24" viewBox="0 0 24 24" fill="none" xmlns="http://www.w3.org/2000/svg">
<path d="M13.2375 18.3783H10.9118C10.5105 18.3783 10.1851 18.7036 10.1851 19.1051C10.1851 19.5064 10.5104 19.8318 10.9118 19.8318H13.2375C13.6389 19.8318 13.9643 19.5066 13.9643 19.1051C13.9643 18.7037 13.639 18.3783 13.2375 18.3783Z" fill="#27AE60"/>
<path d="M18.0178 16.3083L16.8112 14.5916V10.8121C16.8112 8.44834 15.0687 6.48913 12.8018 6.13779V5.72679C12.8018 5.32544 12.4765 5 12.075 5C11.6737 5 11.3482 5.3253 11.3482 5.72679V6.13779C9.08141 6.48936 7.33884 8.44856 7.33884 10.8136V14.5916L6.13228 16.3083C5.97621 16.5301 5.95679 16.8205 6.08177 17.0613C6.20704 17.3021 6.45568 17.453 6.72681 17.453H17.4233C17.6944 17.453 17.943 17.302 18.0683 17.0613C18.1931 16.8205 18.1739 16.5301 18.0176 16.3083H18.0178Z" fill="#27AE60"/>
</svg>
