<svg width="24" height="24" viewBox="0 0 24 24" fill="none" xmlns="http://www.w3.org/2000/svg">
<path fill-rule="evenodd" clip-rule="evenodd" d="M16.2761 5.40945V5.76188C16.2761 6.34578 15.8029 6.81902 15.2189 6.81902C14.635 6.81902 14.1618 6.34578 14.1618 5.76188V5.40945H9.22857V5.76188C9.22857 6.34578 8.75533 6.81902 8.17143 6.81902C7.58752 6.81902 7.11429 6.34578 7.11429 5.76188V5.40945H6.05714C5.47324 5.40945 5 5.88269 5 6.4666V7.52374H18.3904V6.4666C18.3904 5.88269 17.9171 5.40945 17.3332 5.40945H16.2761Z" fill="#F2F2F2"/>
<path fill-rule="evenodd" clip-rule="evenodd" d="M15.5714 4.3523V5.76186C15.5714 5.95642 15.4136 6.11429 15.219 6.11429C15.0246 6.11429 14.8667 5.95642 14.8667 5.76186V4.3523C14.8667 4.15786 15.0246 4 15.219 4C15.4136 4 15.5714 4.15786 15.5714 4.3523Z" fill="#F2F2F2"/>
<path fill-rule="evenodd" clip-rule="evenodd" d="M8.52393 4.3523V5.76186C8.52393 5.95642 8.36607 6.11429 8.17151 6.11429C7.97696 6.11429 7.81909 5.95642 7.81909 5.76186V4.3523C7.81909 4.15786 7.97696 4 8.17151 4C8.36607 4 8.52393 4.15786 8.52393 4.3523Z" fill="#F2F2F2"/>
<path fill-rule="evenodd" clip-rule="evenodd" d="M18.3904 13.585V8.22864H5V17.7429C5 18.0234 5.11138 18.2923 5.30971 18.4902C5.50781 18.6887 5.7767 18.8001 6.05714 18.8001H13.1756C12.905 18.2715 12.7524 17.6724 12.7524 17.0381C12.7524 14.8988 14.4893 13.162 16.6285 13.162C17.2628 13.162 17.8618 13.3145 18.3904 13.5852V13.585ZM8.52391 16.0514C8.52391 15.8458 8.44215 15.6486 8.29691 15.503C8.15143 15.3579 7.95403 15.2761 7.74864 15.2761H7.18479C6.97938 15.2761 6.78211 15.3579 6.63653 15.503C6.49141 15.6486 6.40965 15.8459 6.40965 16.0514V16.6151C6.40965 16.8206 6.49141 17.0179 6.63653 17.1635C6.78212 17.3086 6.97941 17.3904 7.18479 17.3904H7.74864C7.95406 17.3904 8.15145 17.3086 8.29691 17.1635C8.44215 17.0179 8.52391 16.8206 8.52391 16.6151V16.0514ZM11.3429 16.0514C11.3429 15.8458 11.2612 15.6486 11.116 15.503C10.9704 15.3579 10.7732 15.2761 10.5676 15.2761H10.0039C9.79839 15.2761 9.60112 15.3579 9.45553 15.503C9.31041 15.6486 9.22865 15.8459 9.22865 16.0514V16.6151C9.22865 16.8206 9.31041 17.0179 9.45553 17.1635C9.60113 17.3086 9.79841 17.3904 10.0039 17.3904H10.5676C10.7732 17.3904 10.9704 17.3086 11.116 17.1635C11.2612 17.0179 11.3429 16.8206 11.3429 16.6151V16.0514ZM7.81901 16.0514V16.6151C7.81901 16.6339 7.81169 16.6518 7.79824 16.6648C7.78526 16.6782 7.76721 16.6857 7.74857 16.6857H7.18472C7.16608 16.6857 7.14815 16.6782 7.13505 16.6648C7.12172 16.6518 7.11429 16.6339 7.11429 16.6151V16.0514C7.11429 16.0326 7.12172 16.0147 7.13505 16.0017C7.14815 15.9883 7.16608 15.9808 7.18472 15.9808H7.74857C7.76721 15.9808 7.78526 15.9883 7.79824 16.0017C7.81169 16.0147 7.81901 16.0326 7.81901 16.0514ZM10.6381 16.0514V16.6151C10.6381 16.6339 10.6307 16.6518 10.6173 16.6648C10.6043 16.6782 10.5863 16.6857 10.5676 16.6857H10.0039C9.98509 16.6857 9.96716 16.6782 9.95418 16.6648C9.94073 16.6518 9.9333 16.6339 9.9333 16.6151V16.0514C9.9333 16.0326 9.94073 16.0147 9.95418 16.0017C9.96716 15.9883 9.98509 15.9808 10.0039 15.9808H10.5676C10.5863 15.9808 10.6043 15.9883 10.6173 16.0017C10.6307 16.0147 10.6381 16.0326 10.6381 16.0514ZM8.52385 13.2322C8.52385 13.0268 8.44209 12.8296 8.29685 12.684C8.15137 12.5389 7.95397 12.4571 7.74858 12.4571H7.18473C6.97932 12.4571 6.78205 12.5389 6.63647 12.684C6.49135 12.8296 6.40959 13.0269 6.40959 13.2322V13.7961C6.40959 14.0015 6.49135 14.1989 6.63647 14.3444C6.78206 14.4896 6.97935 14.5714 7.18473 14.5714H7.74858C7.954 14.5714 8.15139 14.4896 8.29685 14.3444C8.44209 14.1989 8.52385 14.0015 8.52385 13.7961V13.2322ZM11.3429 13.2322C11.3429 13.0268 11.2611 12.8296 11.116 12.684C10.9704 12.5389 10.7731 12.4571 10.5676 12.4571H10.0039C9.79833 12.4571 9.60106 12.5389 9.45547 12.684C9.31035 12.8296 9.22859 13.0269 9.22859 13.2322V13.7961C9.22859 14.0015 9.31035 14.1989 9.45547 14.3444C9.60107 14.4896 9.79835 14.5714 10.0039 14.5714H10.5676C10.7731 14.5714 10.9704 14.4896 11.116 14.3444C11.2611 14.1989 11.3429 14.0015 11.3429 13.7961V13.2322ZM7.81895 13.2322V13.7961C7.81895 13.8147 7.81163 13.8328 7.79818 13.8458C7.7852 13.8592 7.76715 13.8665 7.74851 13.8665H7.18466C7.16602 13.8665 7.14809 13.8592 7.13499 13.8458C7.12166 13.8328 7.11423 13.8147 7.11423 13.7961V13.2322C7.11423 13.2136 7.12166 13.1957 7.13499 13.1826C7.14809 13.1692 7.16602 13.1618 7.18466 13.1618H7.74851C7.76715 13.1618 7.7852 13.1692 7.79818 13.1826C7.81163 13.1957 7.81895 13.2136 7.81895 13.2322ZM10.6381 13.2322V13.7961C10.6381 13.8147 10.6306 13.8328 10.6172 13.8458C10.6042 13.8592 10.5863 13.8665 10.5675 13.8665H10.0038C9.98503 13.8665 9.9671 13.8592 9.95412 13.8458C9.94067 13.8328 9.93324 13.8147 9.93324 13.7961V13.2322C9.93324 13.2136 9.94067 13.1957 9.95412 13.1826C9.9671 13.1692 9.98503 13.1618 10.0038 13.1618H10.5675C10.5863 13.1618 10.6042 13.1692 10.6172 13.1826C10.6306 13.1957 10.6381 13.2136 10.6381 13.2322ZM8.52379 10.4132C8.52379 10.2078 8.44203 10.0104 8.29679 9.86497C8.15131 9.71973 7.95391 9.63797 7.74852 9.63797H7.18467C6.97926 9.63797 6.78199 9.71973 6.63641 9.86497C6.49129 10.0104 6.40952 10.2079 6.40952 10.4132V10.9771C6.40952 11.1825 6.49129 11.3798 6.63641 11.5254C6.782 11.6705 6.97929 11.7522 7.18467 11.7522H7.74852C7.95393 11.7522 8.15132 11.6705 8.29679 11.5254C8.44203 11.3798 8.52379 11.1825 8.52379 10.9771V10.4132ZM11.3428 10.4132C11.3428 10.2078 11.261 10.0104 11.1159 9.86497C10.9703 9.71973 10.773 9.63797 10.5675 9.63797H10.0038C9.79827 9.63797 9.601 9.71973 9.45541 9.86497C9.31029 10.0104 9.22853 10.2079 9.22853 10.4132V10.9771C9.22853 11.1825 9.31029 11.3798 9.45541 11.5254C9.60101 11.6705 9.79829 11.7522 10.0038 11.7522H10.5675C10.7731 11.7522 10.9703 11.6705 11.1159 11.5254C11.261 11.3798 11.3428 11.1825 11.3428 10.9771V10.4132ZM16.981 10.4132C16.981 10.2078 16.8992 10.0104 16.754 9.86497C16.6085 9.71973 16.4111 9.63797 16.2057 9.63797H15.6419C15.4365 9.63797 15.2392 9.71973 15.0936 9.86497C14.9485 10.0104 14.8667 10.2079 14.8667 10.4132V10.9771C14.8667 11.1825 14.9485 11.3798 15.0936 11.5254C15.2392 11.6705 15.4365 11.7522 15.6419 11.7522H16.2057C16.4111 11.7522 16.6085 11.6705 16.754 11.5254C16.8992 11.3798 16.981 11.1825 16.981 10.9771V10.4132ZM14.1619 10.4132C14.1619 10.2078 14.0801 10.0104 13.935 9.86497C13.7894 9.71973 13.5921 9.63797 13.3867 9.63797H12.8229C12.6175 9.63797 12.4201 9.71973 12.2746 9.86497C12.1294 10.0104 12.0476 10.2079 12.0476 10.4132V10.9771C12.0476 11.1825 12.1294 11.3798 12.2746 11.5254C12.4201 11.6705 12.6175 11.7522 12.8229 11.7522H13.3867C13.5921 11.7522 13.7894 11.6705 13.935 11.5254C14.0801 11.3798 14.1619 11.1825 14.1619 10.9771V10.4132ZM7.81901 10.4132V10.9771C7.81901 10.9957 7.81169 11.0137 7.79824 11.0268C7.78526 11.0401 7.76721 11.0475 7.74857 11.0475H7.18472C7.16608 11.0475 7.14815 11.0401 7.13505 11.0268C7.12172 11.0137 7.11429 10.9957 7.11429 10.9771V10.4132C7.11429 10.3946 7.12172 10.3765 7.13505 10.3636C7.14815 10.3501 7.16608 10.3428 7.18472 10.3428H7.74857C7.76721 10.3428 7.78526 10.3501 7.79824 10.3636C7.81169 10.3765 7.81901 10.3946 7.81901 10.4132ZM10.6381 10.4132V10.9771C10.6381 10.9957 10.6307 11.0137 10.6173 11.0268C10.6043 11.0401 10.5863 11.0475 10.5676 11.0475H10.0039C9.98509 11.0475 9.96716 11.0401 9.95418 11.0268C9.94073 11.0137 9.9333 10.9957 9.9333 10.9771V10.4132C9.9333 10.3946 9.94073 10.3765 9.95418 10.3636C9.96716 10.3501 9.98509 10.3428 10.0039 10.3428H10.5676C10.5863 10.3428 10.6043 10.3501 10.6173 10.3636C10.6307 10.3765 10.6381 10.3946 10.6381 10.4132ZM16.276 10.4132V10.9771C16.276 10.9957 16.2687 11.0137 16.2553 11.0268C16.2423 11.0401 16.2242 11.0475 16.2056 11.0475H15.6417C15.6231 11.0475 15.6052 11.0401 15.5921 11.0268C15.5787 11.0137 15.5713 10.9957 15.5713 10.9771V10.4132C15.5713 10.3946 15.5787 10.3765 15.5921 10.3636C15.6052 10.3501 15.6231 10.3428 15.6417 10.3428H16.2056C16.2242 10.3428 16.2423 10.3501 16.2553 10.3636C16.2687 10.3765 16.276 10.3946 16.276 10.4132ZM13.457 10.4132V10.9771C13.457 10.9957 13.4496 11.0137 13.4363 11.0268C13.4232 11.0401 13.4052 11.0475 13.3866 11.0475H12.8227C12.8041 11.0475 12.786 11.0401 12.7731 11.0268C12.7596 11.0137 12.7523 10.9957 12.7523 10.9771V10.4132C12.7523 10.3946 12.7596 10.3765 12.7731 10.3636C12.786 10.3501 12.8041 10.3428 12.8227 10.3428H13.3866C13.4052 10.3428 13.4232 10.3501 13.4363 10.3636C13.4496 10.3765 13.457 10.3946 13.457 10.4132Z" fill="#F2F2F2"/>
<path fill-rule="evenodd" clip-rule="evenodd" d="M16.6286 13.8665C18.3789 13.8665 19.8 15.2878 19.8 17.0379C19.8 18.7882 18.3789 20.2094 16.6286 20.2094C14.8783 20.2094 13.4572 18.7882 13.4572 17.0379C13.4572 15.2878 14.8783 13.8665 16.6286 13.8665ZM14.8843 17.2871L15.8812 18.284C16.0186 18.4214 16.2417 18.4214 16.3794 18.284L18.3729 16.2906C18.5103 16.1528 18.5103 15.9297 18.3729 15.7919C18.2351 15.6546 18.0121 15.6546 17.8746 15.7919L16.1303 17.5362L15.3825 16.7889C15.2451 16.6514 15.0221 16.6514 14.8843 16.7889C14.7468 16.9263 14.7468 17.1497 14.8843 17.2871Z" fill="#F2F2F2"/>
</svg>
