<svg width="24" height="24" viewBox="0 0 24 24" fill="none" xmlns="http://www.w3.org/2000/svg">
<path fill-rule="evenodd" clip-rule="evenodd" d="M11.0938 19.6401L12.117 20.8358L13.1403 19.6401L12.4504 13.8109H11.8181L11.0938 19.6401Z" fill="#F2F2F2"/>
<path fill-rule="evenodd" clip-rule="evenodd" d="M19.23 18.9041C19.23 18.9041 19.23 16.5318 19.0307 14.9645C18.8275 13.397 15.8 12.7646 14.6693 12.3239C13.9028 12.0287 13.8836 11.3696 13.8836 11.3696C12.8297 12.6688 11.4155 12.6764 10.3387 11.3619C10.3387 11.3619 10.4269 11.9905 9.56459 12.3239C8.43402 12.7646 5.40249 13.3969 5.20317 14.9645C5 16.5319 5 18.9041 5 18.9041H10.5303L11.3199 13.7189C11.3581 13.4813 11.569 13.4008 11.8104 13.4008H12.4887C12.7302 13.4008 12.9179 13.4851 12.9486 13.7227L13.6193 18.9042L19.23 18.9041ZM9.14284 7.04254C9.14284 8.44134 9.40732 9.22325 10.2351 10.5724C10.8867 11.4041 11.5075 11.7834 12.1169 11.7336C12.7263 11.7834 13.347 11.404 13.9948 10.5724C14.8265 9.22337 15.0871 8.44158 15.0871 7.04254C15.0871 2.98387 9.14312 2.98777 9.14312 7.04254H9.14284Z" fill="#F2F2F2"/>
</svg>
