<svg width="10" height="10" viewBox="0 0 10 10" fill="none" xmlns="http://www.w3.org/2000/svg">
<path d="M3.36252 1.18971C3.87793 -0.396551 6.12207 -0.396551 6.63748 1.18971C6.86798 1.89911 7.52905 2.37941 8.27496 2.37941C9.94285 2.37941 10.6363 4.51372 9.28698 5.49408C8.68353 5.93251 8.43102 6.70965 8.66151 7.41905C9.17692 9.00532 7.36137 10.3244 6.01202 9.34403C5.40857 8.90559 4.59143 8.90559 3.98798 9.34403C2.63863 10.3244 0.823077 9.00532 1.33849 7.41905C1.56898 6.70965 1.31647 5.93251 0.713024 5.49408C-0.636333 4.51372 0.0571455 2.37941 1.72504 2.37941C2.47095 2.37941 3.13202 1.89911 3.36252 1.18971Z" fill="white"/>
</svg>
