<svg width="15" height="15" viewBox="0 0 15 15" fill="none" xmlns="http://www.w3.org/2000/svg">
<path d="M5.53531 1.42743C6.15371 -0.475812 8.84629 -0.475812 9.46469 1.42743L9.81901 2.51789C10.0956 3.36905 10.8887 3.94533 11.7837 3.94533H12.9303C14.9315 3.94533 15.7635 6.50612 14.1445 7.68239L13.2169 8.35634C12.4929 8.88238 12.1899 9.81481 12.4665 10.666L12.8208 11.7564C13.4392 13.6597 11.2608 15.2423 9.64185 14.0661L8.71425 13.3921C7.99021 12.8661 7.00979 12.8661 6.28575 13.3921L5.35815 14.0661C3.73916 15.2423 1.56081 13.6597 2.17921 11.7564L2.53352 10.666C2.81008 9.81482 2.50711 8.88238 1.78308 8.35634L0.855476 7.68239C-0.763519 6.50612 0.0685354 3.94533 2.06972 3.94533H3.2163C4.11126 3.94533 4.90444 3.36905 5.18099 2.51789L5.53531 1.42743Z" fill="white"/>
</svg>
