<svg width="461" height="195" viewBox="0 0 461 195" fill="none" xmlns="http://www.w3.org/2000/svg">
<path d="M0 61.5C0 57.3579 3.35786 54 7.5 54C11.6421 54 15 57.3579 15 61.5V195H0V61.5Z" fill="#2F80ED"/>
<path d="M78 7.50001C78 3.35787 81.3579 0 85.5 0C89.6421 0 93 3.35786 93 7.5V195H78V7.50001Z" fill="#2F80ED"/>
<path d="M155 115.5C155 111.358 158.358 108 162.5 108C166.642 108 170 111.358 170 115.5V195H155V115.5Z" fill="#2F80ED"/>
<path d="M232 37.5C232 33.3579 235.358 30 239.5 30C243.642 30 247 33.3579 247 37.5V195H232V37.5Z" fill="#E0E0E0"/>
<path d="M304 85.5C304 81.3579 307.358 78 311.5 78C315.642 78 319 81.3579 319 85.5V195H304V85.5Z" fill="#2F80ED"/>
<path d="M372 37.5C372 33.3579 375.358 30 379.5 30C383.642 30 387 33.3579 387 37.5V195H372V37.5Z" fill="#2F80ED"/>
<path d="M446 124.5C446 120.358 449.358 117 453.5 117C457.642 117 461 120.358 461 124.5V195H446V124.5Z" fill="#2F80ED"/>
</svg>
