<svg width="40" height="40" viewBox="0 0 40 40" fill="none" xmlns="http://www.w3.org/2000/svg">
<path d="M26.6133 30.9973C26.1066 28.7188 25.432 26.2027 25.432 26.2027C25.432 25.2467 24.18 24.1547 21.7027 23.5201C20.4188 23.1922 19.34 22.4547 19.34 22.4547C19.18 22.3654 19.2054 21.5306 19.2054 21.5306L18.4094 21.4092C18.4094 21.3384 18.3386 20.3437 18.3386 20.3437C19.2946 20.0223 19.192 18.1477 19.192 18.1477C19.796 18.481 20.1933 16.9984 20.1933 16.9984C20.9054 14.9384 19.8333 15.0598 19.8333 15.0598C20.1732 13.5199 19.8333 11.2598 19.8333 11.2598C19.7494 10.5477 19.4732 9.98906 19.0759 9.55849C17.1387 7.47077 12.3239 8.44666 13.0239 9.57612C10.9252 9.19085 11.4065 13.9348 11.4065 13.9348L11.8625 15.1614C10.9706 15.7386 11.5931 16.4321 11.6185 17.2348C11.6373 17.7549 11.792 17.9989 11.9518 18.1082C12.1572 18.2428 12.3877 18.1723 12.3877 18.1723C12.3944 18.3136 12.4011 18.4482 12.413 18.5763C12.5089 19.527 12.8435 19.9817 13.0996 20.2004C13.273 20.3484 13.4009 20.3803 13.4009 20.3803C13.4076 20.4323 13.4143 20.483 13.4197 20.5283C13.5744 21.587 13.465 21.3951 13.465 21.3951L12.6049 21.4977C12.6435 21.8058 12.5342 22.3323 12.5342 22.3323C11.5226 22.7799 11.3041 23.0439 10.296 23.4799C8.344 24.3265 6.23326 25.4319 5.85337 26.9198C5.67346 27.6385 5.31475 29.3852 5 30.9892H5.17991L26.6133 30.9973Z" fill="#9B51E0"/>
<path d="M22.8904 15.6042C22.8904 15.7069 22.769 16.875 22.5625 17.6002C22.3571 18.319 21.6571 19.5643 21.6571 19.5643C22.0105 19.4042 22.697 18.563 22.697 18.563C22.697 18.563 22.4464 19.3337 22.4078 19.4364C22.3691 19.5391 22.1319 19.8605 22.1825 19.8605C22.2345 19.8605 22.7598 20.1045 22.7598 20.1045L24.8078 20.7404L24.7759 21.7031C24.596 21.7284 23.8906 22.1978 23.7879 22.4283C23.7172 22.583 23.5692 22.8525 23.4279 23.0377C25.2893 23.7884 26.3866 24.8924 26.4319 26.1257C26.4571 26.3243 27.4145 29.7337 27.6198 30.9978H36.273C36.221 29.9005 36.0223 26.023 36.0223 25.9911C36.0223 25.9911 35.5277 24.7324 34.745 24.6045C33.9625 24.4766 32.9544 24.2004 32.5303 23.8857C32.2863 23.6991 31.4837 23.3723 31.1116 23.2377C30.9381 23.1737 30.6435 22.6605 30.5408 22.4283C30.4381 22.1964 29.7314 21.7283 29.5529 21.7031L29.5209 20.7404L31.5689 20.1045C31.5689 20.1045 32.0955 19.8605 32.1462 19.8605C32.1969 19.8605 31.9022 19.4685 31.8636 19.3658C31.825 19.2632 31.633 18.5565 31.633 18.5565C31.633 18.5565 32.3263 19.4031 32.673 19.5578C32.673 19.5578 31.9863 18.2672 31.781 17.5484C31.5757 16.8297 31.4411 15.6991 31.4411 15.6031C31.4411 15.5004 31.017 12.4765 30.7864 11.9765C30.6129 11.6044 30.4011 11.1352 30.0797 10.7832C29.9701 10.6616 29.8422 10.5455 29.7009 10.4629C29.1623 10.1296 28.3663 9.65353 27.2236 9.58948H27.1716H27.1196C25.977 9.65354 25.181 10.1281 24.6424 10.4629C24.1038 10.7962 23.789 11.4776 23.5571 11.9776C23.4544 12.2029 23.3131 12.9149 23.1917 13.6535C23.0181 14.5776 22.8902 15.5468 22.8902 15.6042L22.8904 15.6042Z" fill="#9B51E0"/>
</svg>
