<svg width="40" height="40" viewBox="0 0 40 40" fill="none" xmlns="http://www.w3.org/2000/svg">
<path d="M5 12.5582L6.57497 28.2331C10.6499 28.0081 14.7247 28.6831 18.8253 30.3331V14.9331C13.8002 13.0581 9.22526 12.3581 5.00011 12.5581L5 12.5582Z" fill="#3FBA57"/>
<path d="M8.42523 11.2084C11.8002 11.4334 15.2755 12.1833 18.8252 13.4584V12.7084C15.4252 10.2334 11.5749 8.5334 8.27551 8.3334L8.42523 11.2084Z" fill="#3FBA57"/>
<path d="M27.3498 23.8336C27.8748 23.5086 28.4748 23.3586 28.9998 23.2587L29.3498 23.1837C29.4498 23.1587 29.5498 23.1337 29.6748 23.1337C29.4748 22.3337 29.0498 21.5587 28.4748 20.8837C27.9248 20.2337 27.1748 19.7837 26.3748 19.3337C25.9748 19.0837 25.5498 18.8587 25.1498 18.5587C23.6748 17.5337 22.7498 15.9587 22.5247 14.0837C21.6747 14.3337 20.8247 14.6337 19.9747 14.9587V30.3838C21.7998 29.6338 23.6247 29.0838 25.4497 28.7338C25.4497 28.6838 25.4747 28.6088 25.4747 28.5588L25.5497 27.8839C25.6497 26.9839 25.7497 25.9839 26.2247 25.0839C26.4997 24.5589 26.8747 24.1339 27.3497 23.8339L27.3498 23.8336Z" fill="#3FBA57"/>
<path d="M25.9498 17.4085C26.2998 17.6585 26.6749 17.8835 27.0749 18.1085C27.9249 18.6085 28.8249 19.1335 29.5249 19.9585C30.3249 20.9085 30.8749 21.9585 31.0998 23.0835C31.2998 23.1085 31.4748 23.1335 31.6748 23.1585L31.7998 23.1835C32.0498 23.2335 32.3748 23.2835 32.7248 23.4085L33.8248 12.5337C30.7248 12.3837 27.4248 12.7337 23.8751 13.6587C24.0251 15.2587 24.7501 16.5837 25.9501 17.4087L25.9498 17.4085Z" fill="#3FBA57"/>
<path d="M30.5247 8.33334C27.2497 8.53334 23.3995 10.2333 19.975 12.7333V13.4833C23.525 12.2084 27.0001 11.4333 30.375 11.2333L30.5247 8.33334Z" fill="#3FBA57"/>
<path d="M34.6749 28.6582C34.5249 27.6082 34.5249 26.4332 34.0249 25.4582C33.5499 24.5332 32.5749 24.2582 31.5999 24.0832C31.5749 24.0832 31.5499 24.0832 31.4999 24.0582C31.0499 23.9832 30.5749 23.9082 30.1249 23.9582C29.9249 23.9832 29.7499 24.0082 29.5499 24.0582C29.4249 24.0832 29.2999 24.1082 29.1999 24.1332C28.7249 24.2332 28.2499 24.3582 27.825 24.6082C27.475 24.8082 27.225 25.1082 27.05 25.4582C26.55 26.4332 26.55 27.5833 26.4 28.6582C26.225 29.9082 26.125 31.1332 26.125 32.3833C26.125 34.8582 28.1 36.6582 30.55 36.8083C33 36.6583 34.9751 34.8583 34.9751 32.3833C34.9501 31.1582 34.8501 29.9083 34.6751 28.6582L34.6749 28.6582ZM31.4999 29.0082C31.4749 29.4832 31.0999 29.7832 30.4749 29.8082C29.9499 29.8332 29.5499 29.5832 29.5499 29.1332C29.5499 28.6582 29.5249 28.1832 29.5499 27.7332C29.5499 27.2832 29.5749 26.8082 29.5999 26.3583C29.6249 25.8833 30.1249 25.5833 30.6499 25.6332C31.1749 25.6832 31.4499 25.9332 31.4999 26.4583V26.5333V27.7333C31.5249 28.1583 31.5249 28.5833 31.4999 29.0082L31.4999 29.0082Z" fill="#3FBA57"/>
</svg>
