<svg width="24" height="24" viewBox="0 0 24 24" fill="none" xmlns="http://www.w3.org/2000/svg">
<path d="M19.7773 13.1399V11.3872C19.7773 9.42796 18.999 7.54896 17.6136 6.16365C16.2282 4.77827 14.3494 4 12.3901 4C10.4308 4 8.55192 4.77827 7.16661 6.16365C5.78123 7.54904 5.00296 9.42784 5.00296 11.3872V13.1399C4.01498 13.6485 3.30851 14.5749 3.07945 15.6622C2.85025 16.7494 3.12277 17.8822 3.82146 18.7462C4.52014 19.6102 5.57063 20.1137 6.68183 20.1173H7.01761C7.37377 20.1173 7.7154 19.9758 7.96737 19.724C8.2192 19.472 8.3607 19.1303 8.3607 18.7742V14.0733C8.3607 13.7172 8.2192 13.3756 7.96737 13.1236C7.71539 12.8718 7.37376 12.7303 7.01761 12.7303H6.34606V11.3872C6.34606 9.22784 7.49805 7.23238 9.36803 6.15291C11.238 5.07317 13.542 5.07317 15.412 6.15291C17.2819 7.23249 18.4339 9.2278 18.4339 11.3872V12.7303H17.7624C17.4062 12.7303 17.0646 12.8718 16.8126 13.1236C16.5608 13.3756 16.4193 13.7172 16.4193 14.0733V18.7742H14.4046V18.1026C14.4046 17.9246 14.3339 17.7537 14.208 17.6278C14.0821 17.5018 13.9112 17.4311 13.7331 17.4311H12.39C12.2119 17.4311 12.041 17.5018 11.9151 17.6278C11.7892 17.7537 11.7184 17.9246 11.7184 18.1026V19.4457C11.7184 19.6238 11.7892 19.7947 11.9151 19.9206C12.041 20.0465 12.2119 20.1173 12.39 20.1173H18.0982C19.2094 20.1137 20.2599 19.6102 20.9585 18.7462C21.6572 17.8821 21.9298 16.7494 21.7005 15.6622C21.4715 14.5749 20.765 13.6485 19.777 13.1399H19.7773Z" fill="#F2F2F2"/>
</svg>
